<?xml version="1.0" standalone="no"?>
<!DOCTYPE svg PUBLIC "-//W3C//DTD SVG 20010904//EN"
 "http://www.w3.org/TR/2001/REC-SVG-20010904/DTD/svg10.dtd">
<svg version="1.0" xmlns="http://www.w3.org/2000/svg"
 width="512.000000pt" height="512.000000pt" viewBox="0 0 512.000000 512.000000"
 preserveAspectRatio="xMidYMid meet">

<g transform="translate(0.000000,512.000000) scale(0.100000,-0.100000)"
fill="#000000" stroke="none">
<path d="M832 3481 c-171 -59 -245 -240 -197 -476 55 -265 239 -561 511 -825
236 -228 484 -381 726 -447 44 -12 100 -18 183 -18 109 0 125 2 175 26 144 68
207 210 181 404 -35 261 -200 559 -456 824 -263 271 -531 443 -799 511 -104
26 -250 27 -324 1z"/>
<path d="M3950 3476 c-254 -70 -480 -210 -729 -451 -279 -270 -469 -594 -511
-869 -29 -195 40 -353 185 -417 61 -27 194 -36 287 -20 305 53 676 301 973
651 105 124 232 341 289 492 106 282 58 516 -122 605 -51 25 -69 28 -172 31
-95 2 -129 -2 -200 -22z"/>
<path d="M2067 1119 c-39 -20 -76 -81 -77 -123 0 -48 41 -105 108 -149 190
-126 416 -164 662 -112 152 32 318 126 351 199 24 53 24 70 -2 123 -39 81
-133 102 -210 47 -109 -78 -203 -106 -350 -106 -126 0 -208 26 -315 99 -65 44
-115 51 -167 22z"/>
</g>
</svg>
