<?xml version="1.0" standalone="no"?>
<!DOCTYPE svg PUBLIC "-//W3C//DTD SVG 20010904//EN"
 "http://www.w3.org/TR/2001/REC-SVG-20010904/DTD/svg10.dtd">
<svg version="1.0" xmlns="http://www.w3.org/2000/svg"
 width="1182.000000pt" height="512.000000pt" viewBox="0 0 1182.000000 512.000000"
 preserveAspectRatio="xMidYMid meet">

<g transform="translate(0.000000,512.000000) scale(0.100000,-0.100000)"
fill="#000000" stroke="none">
<path d="M832 3481 c-171 -59 -245 -240 -197 -476 55 -265 239 -561 511 -825
236 -228 484 -381 726 -447 44 -12 100 -18 183 -18 109 0 125 2 175 26 144 68
207 210 181 404 -35 261 -200 559 -456 824 -263 271 -531 443 -799 511 -104
26 -250 27 -324 1z"/>
<path d="M3950 3476 c-254 -70 -480 -210 -729 -451 -279 -270 -469 -594 -511
-869 -29 -195 40 -353 185 -417 61 -27 194 -36 287 -20 305 53 676 301 973
651 105 124 232 341 289 492 106 282 58 516 -122 605 -51 25 -69 28 -172 31
-95 2 -129 -2 -200 -22z"/>
<path d="M6210 3254 c-73 -20 -126 -52 -182 -112 -104 -111 -158 -298 -158
-547 0 -394 130 -611 393 -656 214 -36 402 51 487 225 61 125 74 198 74 431 0
187 -2 219 -22 293 -59 215 -153 324 -317 367 -74 19 -202 18 -275 -1z m234
-168 c127 -53 186 -205 186 -486 1 -349 -81 -494 -280 -495 -65 0 -82 4 -123
28 -57 34 -99 94 -129 187 -29 91 -37 356 -15 484 17 95 60 197 100 234 62 58
183 81 261 48z"/>
<path d="M8310 3070 l0 -150 -120 0 -120 0 0 -85 0 -85 119 0 119 0 4 -277 c4
-263 5 -281 28 -337 14 -38 40 -77 70 -107 69 -69 152 -93 320 -94 69 0 154 4
190 8 l65 8 -9 84 -9 84 -141 -6 c-198 -8 -257 12 -297 101 -16 36 -19 69 -19
289 l0 247 220 0 220 0 0 85 0 85 -220 0 -220 0 0 150 0 150 -100 0 -100 0 0
-150z"/>
<path d="M9535 2927 c-212 -54 -329 -252 -312 -528 21 -344 237 -497 650 -461
72 7 135 16 141 22 8 8 -5 155 -16 165 -1 2 -26 -1 -53 -7 -28 -6 -104 -11
-170 -11 -101 0 -129 3 -176 21 -94 37 -156 104 -184 200 l-6 22 330 0 331 0
0 110 c0 129 -12 193 -51 277 -36 76 -109 144 -187 174 -70 27 -223 35 -297
16z m236 -184 c68 -35 105 -92 117 -180 l9 -63 -249 0 -248 0 6 28 c26 118 82
199 157 225 70 25 145 21 208 -10z"/>
<path d="M10870 2924 c-48 -17 -103 -63 -125 -104 -7 -14 -19 -54 -26 -88 -21
-101 -31 -86 -50 81 l-12 107 -168 0 -169 0 0 -85 0 -85 90 0 90 0 0 -315 0
-315 -110 0 -110 0 0 -85 0 -85 325 0 325 0 0 85 0 85 -121 0 -122 0 5 203 c6
231 22 303 85 377 47 54 84 72 155 73 51 0 62 -3 87 -27 29 -27 51 -89 51
-140 l0 -26 96 0 97 0 -6 78 c-11 150 -65 236 -168 266 -66 20 -161 20 -219 0z"/>
<path d="M7031 2763 c0 -87 4 -259 8 -383 6 -203 9 -230 29 -275 30 -65 83
-118 146 -146 71 -32 203 -33 262 -2 54 29 110 92 125 142 7 23 16 41 20 41 4
0 11 -45 14 -100 l8 -100 46 0 c25 0 97 3 159 7 l112 6 0 77 0 78 -67 8 -68 9
-3 398 -2 397 -94 0 -94 0 -5 -317 c-4 -344 -8 -371 -59 -429 -40 -45 -86 -64
-156 -64 -79 0 -135 29 -161 84 -20 40 -21 59 -21 384 l0 342 -100 0 -100 0 1
-157z"/>
<path d="M2067 1119 c-39 -20 -76 -81 -77 -123 0 -48 41 -105 108 -149 190
-126 416 -164 662 -112 152 32 318 126 351 199 24 53 24 70 -2 123 -39 81
-133 102 -210 47 -109 -78 -203 -106 -350 -106 -126 0 -208 26 -315 99 -65 44
-115 51 -167 22z"/>
</g>
</svg>
