<svg width="515" height="556" viewBox="0 0 515 556" fill="none" xmlns="http://www.w3.org/2000/svg">
<path d="M82.6061 552.392C73.0704 559.396 59.5287 553.45 58.231 541.69L0.344146 17.1018C-0.953547 5.34171 10.9661 -3.41317 21.7995 1.34305L505.05 213.506C515.883 218.262 517.505 232.962 507.97 239.966L82.6061 552.392Z" fill="#36C09F"/>
<path fill-rule="evenodd" clip-rule="evenodd" d="M160.126 131.795C198.242 120.26 240.487 127.796 271.131 152.119L271.137 152.124C296.189 172.026 310.583 200.965 310.57 231.272C330.533 231.766 349.575 239.912 363.73 254.068C378.342 268.679 386.55 288.496 386.55 309.16C386.55 329.823 378.342 349.64 363.73 364.252C349.119 378.863 329.302 387.072 308.638 387.072C299.076 387.072 291.324 379.32 291.324 369.758C291.324 360.196 299.076 352.444 308.638 352.444C320.118 352.444 331.128 347.884 339.245 339.766C347.362 331.649 351.923 320.639 351.923 309.16C351.923 297.68 347.362 286.67 339.245 278.553C331.128 270.436 320.118 265.875 308.638 265.875H291.324C286.066 265.875 281.093 263.486 277.807 259.38C274.521 255.275 273.279 249.899 274.431 244.768C279.742 221.116 270.817 196.097 249.603 179.241C228.202 162.254 197.833 156.562 170.157 164.938C142.541 173.295 123.121 193.879 117.766 217.727C115.934 225.885 108.535 231.568 100.18 231.234C69.7914 230.018 43.6224 249.537 36.885 276.527L36.883 276.534C30.178 303.341 44.1114 331.585 71.4344 343.499C80.1994 347.321 84.2065 357.525 80.3843 366.29C76.5622 375.055 66.3583 379.062 57.5933 375.24C15.5943 356.926 -7.73122 312.213 3.28839 268.14C3.28903 268.137 3.28967 268.135 3.29032 268.132C13.1476 228.66 47.7563 200.874 87.9066 197.014C99.6132 165.947 126.542 141.959 160.126 131.795Z" fill="#EBF1F1"/>
<path fill-rule="evenodd" clip-rule="evenodd" d="M100.873 335.13C100.873 316.006 116.376 300.502 135.5 300.502H239.383C258.507 300.502 274.011 316.006 274.011 335.13V387.071C274.011 406.196 258.507 421.699 239.383 421.699H135.5C116.376 421.699 100.873 406.196 100.873 387.071V335.13ZM239.383 335.13H135.5V387.071H239.383V335.13Z" fill="#EBF1F1"/>
<path fill-rule="evenodd" clip-rule="evenodd" d="M100.873 335.13C100.873 316.006 116.376 300.502 135.5 300.502H239.383C258.507 300.502 274.011 316.006 274.011 335.13V387.071C274.011 406.196 258.507 421.699 239.383 421.699H135.5C116.376 421.699 100.873 406.196 100.873 387.071V335.13ZM239.383 335.13H135.5V387.071H239.383V335.13Z" fill="#EBF1F1"/>
<path fill-rule="evenodd" clip-rule="evenodd" d="M187.442 265.875C182.85 265.875 178.446 267.699 175.199 270.946C171.952 274.193 170.128 278.597 170.128 283.189V317.817C170.128 327.379 162.376 335.13 152.814 335.13C143.252 335.13 135.5 327.379 135.5 317.817V283.189C135.5 269.413 140.973 256.202 150.714 246.461C160.454 236.72 173.666 231.248 187.442 231.248C201.217 231.248 214.429 236.72 224.17 246.461C233.911 256.202 239.383 269.413 239.383 283.189V317.817C239.383 327.379 231.631 335.13 222.069 335.13C212.507 335.13 204.755 327.379 204.755 317.817V283.189C204.755 278.597 202.931 274.193 199.684 270.946C196.437 267.699 192.033 265.875 187.442 265.875Z" fill="#EBF1F1"/>
</svg>
