<svg width="511" height="732" viewBox="0 0 511 732" fill="none" xmlns="http://www.w3.org/2000/svg">
<path d="M29.6388 729.853C15.5534 736.421 -0.360073 725.278 0.994454 709.796L61.4165 19.1689C62.771 3.68658 80.3777 -4.52353 93.1085 4.39069L660.998 402.031C673.729 410.945 672.036 430.298 657.95 436.866L29.6388 729.853Z" fill="#A4B6DD"/>
<path d="M116.652 273.408C103.989 277.777 98.5089 291.18 102.063 308.656C106.136 328.28 119.762 350.199 139.904 369.749C157.38 386.633 175.745 397.963 193.666 402.85C196.924 403.739 201.071 404.183 207.217 404.183C215.289 404.183 216.473 404.035 220.176 402.258C230.84 397.222 235.505 386.707 233.579 372.341C230.988 353.013 218.769 330.946 199.812 311.322C180.336 291.254 160.49 278.517 140.644 273.482C132.943 271.556 122.131 271.482 116.652 273.408Z" fill="black"/>
<path d="M347.545 273.778C328.736 278.961 312 289.329 293.561 307.175C272.901 327.169 258.831 351.162 255.721 371.526C253.573 385.966 258.683 397.667 269.42 402.406C273.938 404.405 283.786 405.072 290.673 403.887C313.259 399.962 340.732 381.597 362.726 355.679C370.501 346.497 379.906 330.427 384.127 319.246C391.976 298.363 388.422 281.035 375.092 274.444C371.316 272.593 369.983 272.371 362.355 272.149C355.321 272.001 352.803 272.297 347.545 273.778Z" fill="black"/>
<path d="M208.106 448.318C205.218 449.799 202.478 454.316 202.404 457.426C202.404 460.981 205.44 465.202 210.401 468.46C224.471 477.791 241.207 480.605 259.424 476.754C270.68 474.384 282.972 467.423 285.416 462.018C287.193 458.093 287.193 456.834 285.268 452.909C282.38 446.911 275.419 445.356 269.717 449.429C261.645 455.205 254.684 457.278 243.799 457.278C234.468 457.278 228.396 455.353 220.472 449.947C215.659 446.689 211.956 446.171 208.106 448.318Z" fill="black"/>
</svg>
