<svg width="511" height="732" viewBox="0 0 511 732" fill="none" xmlns="http://www.w3.org/2000/svg">
<path d="M29.6388 729.853C15.5534 736.421 -0.360073 725.278 0.994454 709.796L61.4165 19.1689C62.771 3.68658 80.3777 -4.52353 93.1085 4.39069L660.998 402.031C673.729 410.945 672.036 430.298 657.95 436.866L29.6388 729.853Z" fill="#A4B6DD"/>
<path d="M269.945 232.855H215.387L151.839 414.812H167.618C176.608 414.811 185.365 412.034 192.626 406.879C199.887 401.725 205.276 394.46 208.015 386.134L242.839 280.459L279.974 386.134C282.897 394.497 288.44 401.759 295.824 406.903C303.209 412.046 312.064 414.812 321.147 414.812H333.791L269.945 232.855Z" fill="#203C87"/>
</svg>
