<svg width="504" height="544" viewBox="0 0 504 544" fill="none" xmlns="http://www.w3.org/2000/svg">
<path d="M81.5432 540.629C72.2125 547.482 58.9618 541.665 57.692 530.158L1.04933 16.8441C-0.220473 5.33674 11.443 -3.22994 22.0435 1.42406L494.907 209.027C505.508 213.681 507.095 228.065 497.764 234.918L81.5432 540.629Z" fill="#EBF1F1"/>
<path fill-rule="evenodd" clip-rule="evenodd" d="M32.7232 133.415C39.324 126.814 48.2767 123.105 57.6117 123.105H163.205C172.925 123.105 180.804 130.985 180.804 140.704C180.804 150.424 172.925 158.303 163.205 158.303H57.6117V299.094H163.205C172.925 299.094 180.804 306.973 180.804 316.693C180.804 326.413 172.925 334.292 163.205 334.292H57.6117C48.2767 334.292 39.324 330.584 32.7232 323.983C26.1223 317.382 22.414 308.429 22.414 299.094V158.303C22.414 148.968 26.1223 140.015 32.7232 133.415Z" fill="#1C203E"/>
<path fill-rule="evenodd" clip-rule="evenodd" d="M198.403 140.704C198.403 121.265 214.161 105.507 233.601 105.507H339.194C358.633 105.507 374.392 121.265 374.392 140.704V387.089C374.392 406.528 358.633 422.286 339.194 422.286H233.601C214.161 422.286 198.403 406.528 198.403 387.089V140.704ZM339.194 140.704H233.601V387.089H339.194V140.704Z" fill="#1C203E"/>
<path fill-rule="evenodd" clip-rule="evenodd" d="M92.8095 387.089C92.8095 377.369 100.689 369.49 110.408 369.49H163.205C172.925 369.49 180.804 377.369 180.804 387.089C180.804 396.808 172.925 404.687 163.205 404.687H110.408C100.689 404.687 92.8095 396.808 92.8095 387.089Z" fill="#1C203E"/>
<path fill-rule="evenodd" clip-rule="evenodd" d="M286.397 175.902C296.116 175.902 303.996 183.781 303.996 193.501V193.677C303.996 203.397 296.116 211.276 286.397 211.276C276.677 211.276 268.798 203.397 268.798 193.677V193.501C268.798 183.781 276.677 175.902 286.397 175.902Z" fill="#1C203E"/>
<path fill-rule="evenodd" clip-rule="evenodd" d="M251.199 334.292C251.199 314.853 266.958 299.094 286.397 299.094C305.836 299.094 321.595 314.853 321.595 334.292C321.595 353.731 305.836 369.49 286.397 369.49C266.958 369.49 251.199 353.731 251.199 334.292Z" fill="#1C203E"/>
<path fill-rule="evenodd" clip-rule="evenodd" d="M145.606 299.094C155.325 299.094 163.205 306.973 163.205 316.693V387.089C163.205 396.808 155.325 404.687 145.606 404.687C135.886 404.687 128.007 396.808 128.007 387.089V316.693C128.007 306.973 135.886 299.094 145.606 299.094Z" fill="#1C203E"/>
</svg>
