<svg width="107" height="115" viewBox="0 0 107 115" fill="none" xmlns="http://www.w3.org/2000/svg">
<path fill-rule="evenodd" clip-rule="evenodd" d="M12.6793 111.892C12.9467 114.315 15.7366 115.54 17.7012 114.097L105.337 49.7296C107.301 48.2867 106.967 45.2581 104.735 44.2782L5.17354 0.567337C2.94159 -0.412562 0.48585 1.39116 0.753208 3.81404L12.6793 111.892ZM23.6506 28.9912C24.2295 28.6116 24.9355 28.4776 25.6133 28.6185L34.1053 30.3843L35.8629 40.296L30.776 42.0692C29.4932 42.5163 28.7678 43.8726 29.1081 45.1877C30.835 51.8625 34.7159 57.7811 40.1491 62.0256C41.2196 62.8619 42.7526 62.7374 43.674 61.7392L47.328 57.7808L55.7176 63.3437L53.9518 71.8358C53.8109 72.5136 53.4064 73.1076 52.8275 73.4872C52.2673 73.8546 51.588 73.992 50.9305 73.8727C41.7404 71.3487 33.7853 65.5588 28.5582 57.5872C23.331 49.6156 21.1922 40.0119 22.5408 30.5773C22.6935 29.9268 23.0903 29.3586 23.6506 28.9912ZM26.676 23.5074C24.6427 23.0846 22.5247 23.4868 20.7879 24.6256C19.0512 25.7645 17.838 27.5466 17.4152 29.5799C17.4044 29.6316 17.3953 29.6836 17.3877 29.7359C15.829 40.4613 18.2495 51.3864 24.1926 60.4498C30.1356 69.5132 39.1902 76.0882 49.648 78.9342C49.699 78.948 49.7504 78.9604 49.8021 78.9711C51.8354 79.3939 53.9534 78.9916 55.6902 77.8528C57.4269 76.714 58.6401 74.9319 59.0629 72.8986L61.1885 62.6763C61.4057 61.6313 60.9649 60.5593 60.0754 59.9695L48.3603 52.2014C47.2926 51.4934 45.8688 51.665 44.9999 52.6064L41.5435 56.3507C38.5476 53.5312 36.26 50.0426 34.8685 46.1711L39.6803 44.4938C40.89 44.0721 41.6149 42.8348 41.3913 41.5733L38.937 27.7327C38.7507 26.6818 37.9433 25.8502 36.8983 25.6329L26.676 23.5074Z" fill="#A4B6DD"/>
</svg>
