<svg width="503" height="544" viewBox="0 0 503 544" fill="none" xmlns="http://www.w3.org/2000/svg">
<path d="M80.5974 540.552C71.2657 547.406 58.0137 541.588 56.7437 530.079L0.0952383 16.7132C-1.1747 5.20471 10.49 -3.36285 21.0916 1.29162L494.004 208.916C504.605 213.57 506.193 227.956 496.861 234.81L80.5974 540.552Z" fill="#A4B6DD"/>
<path fill-rule="evenodd" clip-rule="evenodd" d="M204.004 76.9278C202.635 75.683 201.119 74.6764 199.512 73.9112C196.98 72.7028 194.243 72.1057 191.513 72.1067C188.782 72.1057 186.045 72.7029 183.513 73.9112C181.906 74.6764 180.39 75.683 179.021 76.9278C139.247 112.036 87.3797 130.312 34.3761 127.886C25.823 127.495 18.1091 132.997 15.6943 141.211C6.56104 172.281 3.76642 204.869 7.47655 237.04C11.1867 269.21 21.3259 300.307 37.2916 328.482C53.2573 356.657 74.7237 381.335 100.415 401.049C126.107 420.764 155.499 435.113 186.846 443.244C189.906 444.037 193.119 444.037 196.179 443.244C227.526 435.113 256.918 420.764 282.61 401.049C308.301 381.335 329.768 356.657 345.734 328.482C361.699 300.307 371.838 269.21 375.549 237.04C379.259 204.869 376.464 172.281 367.331 141.211C364.916 132.997 357.202 127.495 348.649 127.886C295.645 130.312 243.778 112.036 204.004 76.9278ZM191.513 114.805C150.331 146.646 99.9377 164.344 47.8759 165.238C42.9843 187.372 41.8006 210.198 44.405 232.781C47.5443 260.002 56.1236 286.315 69.6331 310.155C83.1425 333.995 101.306 354.877 123.045 371.558C143.505 387.258 166.738 398.936 191.513 405.992C216.287 398.936 239.52 387.258 259.98 371.558C281.719 354.877 299.883 333.995 313.392 310.155C326.901 286.315 335.481 260.002 338.62 232.781C341.225 210.198 340.041 187.372 335.149 165.238C283.087 164.344 232.694 146.646 191.513 114.805Z" fill="#EBF1F1"/>
<path fill-rule="evenodd" clip-rule="evenodd" d="M154.343 239.386C154.343 218.856 170.986 202.213 191.516 202.213C212.046 202.213 228.689 218.856 228.689 239.386C228.689 259.916 212.046 276.559 191.516 276.559C170.986 276.559 154.343 259.916 154.343 239.386Z" fill="#EBF1F1"/>
<path fill-rule="evenodd" clip-rule="evenodd" d="M191.516 239.386C201.781 239.386 210.102 247.708 210.102 257.973V304.439C210.102 314.704 201.781 323.026 191.516 323.026C181.251 323.026 172.929 314.704 172.929 304.439V257.973C172.929 247.708 181.251 239.386 191.516 239.386Z" fill="#EBF1F1"/>
</svg>
