<svg width="506" height="547" viewBox="0 0 506 547" fill="none" xmlns="http://www.w3.org/2000/svg">
<path d="M81.055 543.621C71.6703 550.514 58.343 544.662 57.0658 533.089L0.095779 16.8082C-1.18136 5.23432 10.5495 -3.38195 21.2113 1.29895L496.808 210.102C507.47 214.783 509.067 229.25 499.682 236.143L81.055 543.621Z" fill="#1C203E"/>
<path fill-rule="evenodd" clip-rule="evenodd" d="M120.369 249.754C104.914 249.754 92.3858 262.283 92.3858 277.738V305.721C92.3858 321.175 104.914 333.704 120.369 333.704H288.268C303.722 333.704 316.251 321.175 316.251 305.721V277.738C316.251 262.283 303.722 249.754 288.268 249.754H120.369ZM64.4027 277.738C64.4027 246.828 89.4596 221.771 120.369 221.771H288.268C319.177 221.771 344.234 246.828 344.234 277.738V305.721C344.234 336.63 319.177 361.687 288.268 361.687H120.369C89.4596 361.687 64.4027 336.63 64.4027 305.721V277.738Z" fill="#EBF1F1"/>
<path fill-rule="evenodd" clip-rule="evenodd" d="M120.369 361.687C104.914 361.687 92.3858 374.215 92.3858 389.67V417.653C92.3858 433.108 104.914 445.636 120.369 445.636H288.268C303.722 445.636 316.251 433.108 316.251 417.653V389.67C316.251 374.215 303.722 361.687 288.268 361.687H120.369ZM64.4027 389.67C64.4027 358.761 89.4596 333.704 120.369 333.704H288.268C319.177 333.704 344.234 358.761 344.234 389.67V417.653C344.234 448.562 319.177 473.619 288.268 473.619H120.369C89.4596 473.619 64.4027 448.562 64.4027 417.653V389.67Z" fill="#EBF1F1"/>
<path fill-rule="evenodd" clip-rule="evenodd" d="M134.361 277.737C142.088 277.737 148.352 284.002 148.352 291.729V291.87C148.352 299.597 142.088 305.861 134.361 305.861C126.633 305.861 120.369 299.597 120.369 291.87V291.729C120.369 284.002 126.633 277.737 134.361 277.737Z" fill="#EBF1F1"/>
<path fill-rule="evenodd" clip-rule="evenodd" d="M134.361 389.67C142.088 389.67 148.352 395.934 148.352 403.661V403.802C148.352 411.529 142.088 417.794 134.361 417.794C126.633 417.794 120.369 411.529 120.369 403.802V403.661C120.369 395.934 126.633 389.67 134.361 389.67Z" fill="#EBF1F1"/>
<path fill-rule="evenodd" clip-rule="evenodd" d="M176.335 291.729C176.335 284.002 182.6 277.737 190.327 277.737H274.276C282.004 277.737 288.268 284.002 288.268 291.729C288.268 299.456 282.004 305.72 274.276 305.72H190.327C182.6 305.72 176.335 299.456 176.335 291.729Z" fill="#EBF1F1"/>
<path fill-rule="evenodd" clip-rule="evenodd" d="M176.335 403.661C176.335 395.934 182.6 389.67 190.327 389.67H274.276C282.004 389.67 288.268 395.934 288.268 403.661C288.268 411.389 282.004 417.653 274.276 417.653H190.327C182.6 417.653 176.335 411.389 176.335 403.661Z" fill="#EBF1F1"/>
<path fill-rule="evenodd" clip-rule="evenodd" d="M191.326 28.3566C206.208 23.8298 222.544 26.8976 234.061 36.0992ZM234.061 36.0992L234.064 36.1016C245.489 45.2396 250.313 58.814 247.448 71.6881C246.827 74.4829 247.507 77.4088 249.298 79.6423C251.09 81.8759 253.798 83.1756 256.661 83.1756H266.005C278.792 83.1756 289.259 93.6182 289.259 106.638C289.259 119.667 278.792 130.11 265.995 130.11H153.892C134.488 130.11 119.378 115.058 119.378 97.238C119.378 79.4286 134.487 64.3753 153.892 64.3753C158.313 64.3753 162.141 61.3067 163.104 56.992C165.995 44.0299 176.469 32.8836 191.323 28.3576M153.892 148.986C124.748 148.986 100.502 126.154 100.502 97.238C100.502 70.7385 120.877 49.3462 146.721 45.9653C152.996 28.9874 167.585 15.8568 185.826 10.3001L185.829 10.2992C206.431 4.03079 229.279 8.11619 245.848 21.3554L245.851 21.3578C259.381 32.1788 267.132 47.879 267.138 64.3148C289.932 64.9184 308.135 83.6824 308.135 106.638C308.135 129.982 289.326 148.986 265.995 148.986H153.892Z" fill="#EBF1F1"/>
<path fill-rule="evenodd" clip-rule="evenodd" d="M204.319 130.11C209.531 130.11 213.756 134.336 213.756 139.548V186.737C213.756 191.95 209.531 196.175 204.319 196.175C199.106 196.175 194.881 191.95 194.881 186.737V139.548C194.881 134.336 199.106 130.11 204.319 130.11Z" fill="#EBF1F1"/>
<path fill-rule="evenodd" clip-rule="evenodd" d="M242.07 130.11C247.283 130.11 251.508 134.336 251.508 139.548V177.299H289.26C294.472 177.299 298.698 181.525 298.698 186.737C298.698 191.95 294.472 196.175 289.26 196.175H251.508C246.502 196.175 241.701 194.187 238.161 190.647C234.621 187.107 232.632 182.306 232.632 177.299V139.548C232.632 134.336 236.858 130.11 242.07 130.11Z" fill="#EBF1F1"/>
<path fill-rule="evenodd" clip-rule="evenodd" d="M166.567 130.11C171.779 130.11 176.005 134.336 176.005 139.548V177.299C176.005 182.306 174.016 187.107 170.476 190.647C166.936 194.187 162.135 196.175 157.129 196.175H119.378C114.165 196.175 109.94 191.95 109.94 186.737C109.94 181.525 114.165 177.299 119.378 177.299H157.129V139.548C157.129 134.336 161.355 130.11 166.567 130.11Z" fill="#EBF1F1"/>
<path fill-rule="evenodd" clip-rule="evenodd" d="M120.369 361.687C104.914 361.687 92.3858 374.215 92.3858 389.67V417.653C92.3858 433.108 104.914 445.636 120.369 445.636H288.268C303.722 445.636 316.251 433.108 316.251 417.653V389.67C316.251 374.215 303.722 361.687 288.268 361.687H120.369ZM64.4027 389.67C64.4027 358.761 89.4596 333.704 120.369 333.704H288.268C319.177 333.704 344.234 358.761 344.234 389.67V417.653C344.234 448.562 319.177 473.619 288.268 473.619H120.369C89.4596 473.619 64.4027 448.562 64.4027 417.653V389.67Z" fill="#EBF1F1"/>
</svg>
